<svg width="1176" height="493" viewBox="0 0 1176 493" fill="none" xmlns="http://www.w3.org/2000/svg">
<mask id="mask0_3814_47175" style="mask-type:alpha" maskUnits="userSpaceOnUse" x="0" y="0" width="1176" height="493">
<path d="M1175.68 0H0.316406V493H1175.68V0Z" fill="#E2E41A"/>
</mask>
<g mask="url(#mask0_3814_47175)">
<path opacity="0.4" d="M341.998 312.918C336.872 306.907 331.919 300.733 327.601 294.253C336.867 301.152 345.243 308.958 353.353 316.886C355.705 319.194 358.95 322.542 361.258 324.931C362.467 326.173 362.334 328.031 360.96 329.069C359.769 329.966 358.046 329.957 356.829 329.139C353.693 327.058 350.582 324.979 347.515 322.82C339.816 317.435 332.309 311.825 325.245 305.782C323.827 304.571 322.425 303.33 321.064 302.04C322.853 302.811 324.587 303.64 326.308 304.489C331.652 307.13 336.879 309.96 341.998 312.918ZM313.151 332.095C309.439 328.135 305.583 324.287 301.505 320.608C300.269 319.501 299.009 318.402 297.685 317.339C298.416 318.776 299.199 320.166 300.02 321.549C305.702 331.139 312.452 340.202 319.656 348.96C321.977 351.68 326.697 349.544 325.417 346.316C320.594 334.954 315.259 323.656 308.149 313.184C309.329 319.571 311.075 325.858 313.152 332.084L313.151 332.095ZM283.64 319.409C281.089 326.547 279.238 333.907 277.651 341.283C276.572 335.661 275.297 330.061 273.751 324.529C273.265 322.819 272.768 321.108 272.174 319.397C271.893 322.91 271.855 326.406 271.876 329.918C271.946 338.626 272.581 347.361 273.523 356.043L274.139 361.244C274.29 362.579 275.462 363.711 277.032 363.917C278.852 364.16 280.51 363.056 280.725 361.451C281.153 358.379 281.77 354.071 282.099 351.031C283.26 340.558 284.108 329.978 283.628 319.408L283.64 319.409ZM234.357 352.83C244.225 340.731 253.876 328.396 262.37 315.474C254.088 322.994 246.3 330.98 238.728 339.095C242.513 331.916 246.137 324.666 249.49 317.357C250.549 315.052 251.562 312.733 252.53 310.387C249.321 314.457 246.318 318.633 243.36 322.846C236.035 333.337 229.16 344.142 222.59 355.02L218.688 361.582C217.944 362.823 218.333 364.417 219.674 365.322C221.15 366.316 223.224 366.085 224.309 364.804C227.292 361.285 231.482 356.36 234.345 352.829L234.357 352.83ZM186.939 332.974C182.561 335.88 173.834 341.769 169.498 344.732C168.202 345.608 167.851 347.242 168.729 348.535C169.68 349.942 171.728 350.421 173.283 349.615C182.366 344.943 192.322 339.757 201.218 334.917C216.618 326.542 231.905 317.985 246.616 308.697C232.595 314.365 218.911 320.611 205.341 327.039C214.695 320.226 223.895 313.269 232.843 306.18C235.576 304.018 238.265 301.819 240.933 299.586C234.703 303.023 228.623 306.645 222.564 310.301C210.543 317.603 198.606 325.253 186.939 332.974ZM125.547 312.292L110.125 316.358C108.501 316.784 107.527 318.268 107.914 319.765C108.328 321.351 110.115 322.366 111.909 322.042C129.77 318.763 150.226 314.87 167.935 311.309C191.842 306.467 215.867 301.425 239.494 295.682C216.417 298.568 193.307 302.12 170.37 305.872C189.325 300.419 208.193 294.755 226.876 288.785C229.397 287.962 231.916 287.161 234.429 286.305C229.935 287.199 223.235 288.661 218.733 289.64C187.451 296.522 156.433 304.23 125.55 312.271L125.547 312.292ZM234.043 272.278C209.147 271.443 184.271 271.227 159.39 271.171C141.55 271.123 121.374 271.279 103.46 271.479L84.8277 271.743C83.1131 271.767 81.7108 272.961 81.6464 274.507C81.5863 276.128 83.0219 277.512 84.8568 277.607C134.483 280.174 184.715 282.368 234.334 282.689C207.69 280.003 180.834 277.837 153.97 275.978C168.343 275.516 182.687 274.977 196.849 274.333C209.246 273.73 221.654 273.148 234.053 272.3L234.043 272.278ZM236.117 258.251C207.366 250.431 178.455 243.212 149.482 236.135C128.704 231.059 105.154 225.514 84.2218 220.656L62.4237 215.655C60.7279 215.265 58.9887 216.106 58.4851 217.585C57.9631 219.126 58.9723 220.784 60.7287 221.286C117.808 237.52 175.668 253.548 233.383 267.614C204.319 258.039 174.9 248.873 145.38 239.984C161.033 243.325 176.67 246.579 192.14 249.709C206.775 252.635 221.42 255.573 236.117 258.251ZM243.973 244.741C213.011 228.5 181.716 212.79 150.347 197.22C127.84 186.05 102.272 173.594 79.5318 162.581L55.8442 151.171C54.2941 150.425 52.3557 150.862 51.4575 152.194C50.5311 153.565 51.0543 155.374 52.6412 156.231C113.717 189.335 176.082 222.681 238.361 253.836C206.119 234.825 173.232 216.109 140.186 197.652C158.713 206.28 177.306 214.852 195.832 223.257C211.852 230.486 227.846 237.734 243.997 244.743L243.973 244.741ZM78.484 92.9083C134.855 142.84 192.552 193.356 250.651 241.627C223.335 215.725 195.392 189.929 167.213 164.32C181.624 175.775 196.054 187.157 210.261 198.251C225.063 209.778 239.863 221.316 254.851 232.661C226.764 208.147 198.221 184.064 169.558 160.096C142.224 137.256 110.725 111.345 83.0049 88.741C79.6269 86.2091 75.5172 90.132 78.4709 92.9176L78.484 92.9083Z" fill="url(#paint0_radial_3814_47175)"/>
<path opacity="0.4" d="M860.348 337.521C864.778 330.827 869.01 323.977 872.631 316.821C864.341 324.645 856.95 333.388 849.824 342.274C847.753 344.853 844.919 348.601 842.907 351.27C841.85 352.662 842.12 354.644 843.513 355.7C844.708 356.612 846.351 356.532 847.462 355.595C850.28 353.23 853.098 350.853 855.857 348.397C862.777 342.268 869.498 335.915 875.765 329.114C877.027 327.74 878.266 326.355 879.458 324.914C877.821 325.828 876.23 326.786 874.652 327.778C869.758 330.849 865.006 334.112 860.348 337.521ZM889.294 356.909C892.526 352.49 895.898 348.182 899.513 344.052C900.606 342.807 901.723 341.562 902.909 340.372C902.325 341.949 901.683 343.482 901.017 345.003C896.337 355.563 890.594 365.597 884.411 375.331C882.407 378.354 877.749 376.257 878.715 372.731C882.432 360.306 886.664 347.928 892.626 336.36C891.992 343.272 890.809 350.115 889.305 356.897L889.294 356.909ZM916.443 341.987C919.421 349.555 921.743 357.388 923.825 365.249C924.429 359.149 925.217 353.079 926.257 347.061C926.584 345.192 926.934 343.334 927.363 341.475C927.898 345.233 928.205 348.996 928.455 352.783C929.049 362.148 929.119 371.581 928.891 380.952L928.711 386.576C928.661 388.016 927.636 389.282 926.158 389.575C924.44 389.908 922.783 388.8 922.451 387.082C921.8 383.795 920.882 379.2 920.335 375.933C918.434 364.71 916.805 353.379 916.454 341.987H916.443ZM965.94 375.808C955.616 363.219 945.469 350.374 936.393 336.844C944.869 344.572 952.899 352.835 960.726 361.228C956.571 353.673 952.564 346.035 948.805 338.311C947.624 335.88 946.477 333.425 945.374 330.947C948.74 335.183 951.926 339.549 955.056 343.95C962.834 354.913 970.219 366.239 977.298 377.663L981.518 384.542C982.322 385.851 982.073 387.581 980.872 388.599C979.536 389.735 977.545 389.571 976.41 388.235C973.295 384.576 968.929 379.458 965.928 375.786L965.94 375.808ZM1009.61 352.412C1014.01 355.347 1022.77 361.299 1027.13 364.304C1028.43 365.19 1028.9 366.928 1028.15 368.36C1027.35 369.907 1025.44 370.518 1023.89 369.716C1014.89 365.083 1005 359.931 996.151 355.112C980.837 346.773 965.628 338.225 950.894 328.879C964.68 334.372 978.205 340.488 991.62 346.823C982.19 339.891 972.883 332.809 963.824 325.572C961.059 323.368 958.317 321.118 955.608 318.833C961.802 322.268 967.873 325.888 973.924 329.566C985.932 336.889 997.891 344.602 1009.6 352.412H1009.61ZM1066.5 327.518L1081.51 331.227C1083.08 331.617 1084.13 333.172 1083.87 334.799C1083.59 336.518 1081.96 337.694 1080.24 337.421C1062.98 334.673 1043.19 331.36 1026.04 328.301C1002.89 324.122 979.613 319.739 956.674 314.584C978.888 316.693 1001.16 319.509 1023.3 322.567C1004.82 317.525 986.414 312.242 968.17 306.624C965.71 305.842 963.238 305.093 960.789 304.288C965.134 305.054 971.637 306.335 975.995 307.193C1006.32 313.245 1036.46 320.204 1066.5 327.518ZM960.086 289.168C983.735 287.204 1007.42 285.901 1031.12 284.758C1048.11 283.937 1067.35 283.24 1084.43 282.68L1102.2 282.162C1103.83 282.129 1105.26 283.344 1105.44 284.996C1105.62 286.729 1104.35 288.286 1102.62 288.47C1055.54 293.377 1007.85 297.896 960.605 300.374C985.786 296.333 1011.2 292.847 1036.65 289.691C1022.92 289.817 1009.21 289.85 995.679 289.765C983.82 289.646 971.951 289.561 960.087 289.179L960.086 289.168ZM957.034 274.166C983.824 264.518 1010.82 255.505 1037.88 246.651C1057.28 240.297 1079.3 233.318 1098.87 227.189L1119.25 220.872C1120.84 220.382 1122.56 221.203 1123.15 222.778C1123.77 224.41 1122.94 226.232 1121.29 226.849C1068.16 246.764 1014.26 266.49 960.358 284.114C987.315 272.566 1014.64 261.445 1042.08 250.607C1027.43 254.874 1012.78 259.051 998.281 263.087C984.557 266.855 970.839 270.658 957.034 274.177V274.166ZM948.515 259.974C976.771 241.169 1005.38 222.939 1034.07 204.833C1054.66 191.853 1078.07 177.352 1098.89 164.527L1120.59 151.238C1122.01 150.375 1123.89 150.747 1124.85 152.144C1125.84 153.585 1125.47 155.557 1124.04 156.546C1068.39 194.778 1011.52 233.32 954.584 269.511C983.851 247.681 1013.74 226.124 1043.81 204.86C1026.81 214.944 1009.76 224.961 992.755 234.795C978.048 243.255 963.364 251.738 948.515 259.974ZM1094.55 89.5627C1044.66 145.687 993.57 202.499 941.907 256.913C965.941 227.881 990.594 198.929 1015.47 170.177C1002.61 183.111 989.734 195.988 977.053 208.519C963.834 221.552 950.615 234.596 937.198 247.439C962.074 219.864 987.427 192.735 1012.9 165.719C1037.19 139.983 1065.21 110.755 1089.89 85.2505C1092.91 82.3779 1097.13 86.425 1094.52 89.5517L1094.55 89.5627Z" fill="url(#paint1_radial_3814_47175)"/>
</g>
<defs>
<radialGradient id="paint0_radial_3814_47175" cx="0" cy="0" r="1" gradientUnits="userSpaceOnUse" gradientTransform="translate(224.946 236.097) rotate(-105.757) scale(156.954 172.526)">
<stop stop-color="#F47920"/>
<stop offset="0.65" stop-color="#DC3069"/>
<stop offset="1" stop-color="#D20F8C"/>
</radialGradient>
<radialGradient id="paint1_radial_3814_47175" cx="0" cy="0" r="1" gradientUnits="userSpaceOnUse" gradientTransform="translate(966.051 249.871) rotate(-79.9795) scale(166.829 166.829)">
<stop offset="0.3" stop-color="#FDEE00"/>
<stop offset="0.36" stop-color="#F2EB06"/>
<stop offset="0.47" stop-color="#D5E416"/>
<stop offset="0.61" stop-color="#A6D831"/>
<stop offset="0.77" stop-color="#66C956"/>
<stop offset="0.96" stop-color="#14B585"/>
<stop offset="1" stop-color="#00B091"/>
</radialGradient>
</defs>
</svg>
